<?xml version="1.0" standalone="no"?><!DOCTYPE svg PUBLIC "-//W3C//DTD SVG 1.1//EN" "http://www.w3.org/Graphics/SVG/1.1/DTD/svg11.dtd"><svg t="1704793723063" class="icon" viewBox="0 0 1024 1024" version="1.1" xmlns="http://www.w3.org/2000/svg" p-id="2118" xmlns:xlink="http://www.w3.org/1999/xlink" width="64" height="64"><path d="M511.48689 862.045459c130.09425 0 235.240193-103.516856 235.240193-231.656201 0-128.116072-105.12267-231.656201-235.240193-231.656201s-235.263465 103.540128-235.263465 231.656201c0 128.139345 105.145943 231.656201 235.263465 231.656201z m0-391.562746c89.506706 0 162.373449 71.749655 162.37345 159.906545 0 88.156891-72.843471 159.906546-162.37345 159.906546-89.529978 0-162.396722-71.749655-162.396721-159.883273 0-88.180163 72.866743-159.929818 162.396721-159.929818z" fill="#000000" p-id="2119"></path><path d="M896.626379 0.002327H126.324129C70.120621 0.002327 23.272727 45.10477 23.272727 101.471188v821.059952C23.272727 977.873559 69.07335 1024 126.324129 1024h771.34952C953.877158 1024 1000.725051 978.897557 1000.725051 922.53114V101.471188A103.423765 103.423765 0 0 0 896.626379 0.002327z m30.184658 921.504815c0 16.383963-13.521424 29.719205-30.184658 29.719205H126.324129a29.975205 29.975205 0 0 1-30.184658-29.719205V313.64816h830.671566v607.858982z m0-679.608637H96.139471V101.471188c0-16.383963 13.521424-29.719205 30.184658-29.719206h771.34952c16.663235 0 30.184659 13.335242 30.184659 29.719206v140.427317h-1.047271z" fill="#000000" p-id="2120"></path><path d="M153.39025 154.765612c0 21.527224 17.710505 38.958457 39.563546 38.958457 21.829769 0 39.563546-17.431233 39.563547-38.935184 0-21.527224-17.733778-38.958457-39.563547-38.958457-21.853041 0-39.563546 17.454506-39.563546 38.958457zM291.83939 154.765612c0 13.940332 7.540346 26.786848 19.781773 33.745378a40.098818 40.098818 0 0 0 39.563546 0 38.865366 38.865366 0 0 0 19.781774-33.745378 38.865366 38.865366 0 0 0-19.781774-33.745378 40.098818 40.098818 0 0 0-39.563546 0 38.865366 38.865366 0 0 0-19.781773 33.745378zM430.28853 154.765612c0 21.527224 17.687233 38.958457 39.563546 38.958457 21.829769 0 39.563546-17.431233 39.563546-38.935184 0-21.527224-17.733778-38.958457-39.563546-38.958457-21.876314 0-39.563546 17.454506-39.563546 38.958457z" fill="#000000" p-id="2121"></path></svg>